<?xml version="1.0" encoding="UTF-8" standalone="no"?> <svg width="288" height="288" viewBox="0 0 288 288" fill="none" xmlns="http://www.w3.org/2000/svg">
<g clip-path="url(#clip0_6_8005)">
<path d="M144 288C223.529 288 288 223.529 288 144C288 64.471 223.529 0 144 0C64.471 0 0 64.471 0 144C0 223.529 64.471 288 144 288Z" fill="#F38F41"/>
<path fill-rule="evenodd" clip-rule="evenodd" d="M121.44 86.496H84.96V121.152H121.44V86.496Z" fill="#FFFFFE"/>
<path fill-rule="evenodd" clip-rule="evenodd" d="M124.224 126.624H82.272C80.736 126.624 79.488 125.376 79.488 123.936V83.712C79.488 82.176 80.736 81.024 82.272 81.024H124.224C125.76 81.024 126.912 82.176 126.912 83.712V123.936C126.912 125.376 125.76 126.624 124.224 126.624ZM82.272 141.312H181.92C183.456 141.312 184.608 142.464 184.608 144C184.608 145.536 183.456 146.688 181.92 146.688H82.272C80.736 146.688 79.488 145.536 79.488 144C79.488 142.464 80.736 141.312 82.272 141.312ZM82.272 161.376H181.92C183.456 161.376 184.608 162.624 184.608 164.064C184.608 165.6 183.456 166.848 181.92 166.848H82.272C80.736 166.848 79.488 165.6 79.488 164.064C79.488 162.624 80.736 161.376 82.272 161.376ZM82.272 181.44H181.92C183.456 181.44 184.608 182.688 184.608 184.224C184.608 185.664 183.456 186.912 181.92 186.912H82.272C80.736 186.912 79.488 185.664 79.488 184.224C79.488 182.688 80.736 181.44 82.272 181.44ZM82.272 201.504H181.92C183.456 201.504 184.608 202.752 184.608 204.288C184.608 205.824 183.456 206.976 181.92 206.976H82.272C80.736 206.976 79.488 205.824 79.488 204.288C79.488 202.752 80.736 201.504 82.272 201.504ZM195.84 216.672V87.456V87.168V62.112H68.352V217.248C68.352 219.648 69.312 221.76 70.848 223.392C72.48 224.928 74.592 225.888 76.992 225.888H199.104C196.992 223.392 195.84 220.224 195.84 216.672ZM181.92 126.624H138.72C137.184 126.624 135.936 125.376 135.936 123.936C135.936 122.4 137.184 121.152 138.72 121.152H181.92C183.456 121.152 184.608 122.4 184.608 123.936C184.608 125.376 183.456 126.624 181.92 126.624ZM181.92 106.56H138.72C137.184 106.56 135.936 105.312 135.936 103.776C135.936 102.336 137.184 101.088 138.72 101.088H181.92C183.456 101.088 184.608 102.336 184.608 103.776C184.608 105.312 183.456 106.56 181.92 106.56ZM184.608 83.712C184.608 85.248 183.456 86.496 181.92 86.496H138.72C137.184 86.496 135.936 85.248 135.936 83.712C135.936 82.176 137.184 81.024 138.72 81.024H181.92C183.456 81.024 184.608 82.176 184.608 83.712Z" fill="#FFFFFE"/>
<path fill-rule="evenodd" clip-rule="evenodd" d="M201.216 89.952V216.672C201.216 219.264 202.272 221.568 204 223.2C205.632 224.832 207.936 225.888 210.432 225.888C213.024 225.888 215.328 224.832 216.96 223.2C218.592 221.568 219.648 219.264 219.648 216.672V89.952H213.216V198.528C213.216 200.064 211.968 201.312 210.432 201.312C208.992 201.312 207.744 200.064 207.744 198.528V89.952H201.216Z" fill="#FFFFFE"/>
</g>
<defs>
<clipPath id="clip0_6_8005">
<rect width="288" height="288" fill="white"/>
</clipPath>
</defs>
</svg>
