<?xml version="1.0" encoding="iso-8859-1"?>

<!DOCTYPE svg PUBLIC "-//W3C//DTD SVG 1.1//EN" "http://www.w3.org/Graphics/SVG/1.1/DTD/svg11.dtd">
<!-- Uploaded to: SVG Repo, www.svgrepo.com, Generator: SVG Repo Mixer Tools -->
<svg version="1.1" id="_x34_" xmlns="http://www.w3.org/2000/svg" xmlns:xlink="http://www.w3.org/1999/xlink" 
	 viewBox="0 0 512 512"  xml:space="preserve">
<g>
	<g>
		<path style="fill:none;" d="M445.769,111.232c1.139-1.366,2.354-2.884,3.492-4.404c-1.139,1.52-2.278,3.038-3.417,4.404
			l-0.076,0.076V111.232z"/>
		<path style="fill:none;" d="M470.141,28.473L428.534,70.08c-5.012-0.608-11.541-1.518-19.058-2.582
			c0.759-2.2,1.595-4.403,2.506-6.681c12.452-30.523,32.041-47,44.189-47c1.594,0,3.113,0.304,4.404,0.836
			C464.978,16.399,468.319,21.336,470.141,28.473z"/>
		<path style="fill:none;" d="M389.887,107.208c0.076,0.456,0.076,0.912,0.152,1.366l-11.237,11.239
			c-1.519-5.923,0.076-12.453,4.783-17.16c0.911-0.912,1.822-1.672,2.885-2.43c0.987-0.684,2.126-1.214,3.189-1.67
			C389.583,101.513,389.659,104.399,389.887,107.208z"/>
		<path style="fill:none;" d="M399.378,133.48v0.074c-2.733,0.456-5.543,0.228-8.124-0.606c2.582,0.834,5.391,0.986,8.049,0.532
			H399.378z"/>
		<path style="fill:#F8F1C3;" d="M422.915,142.211v0.076h-0.076l-5.847,5.846l-1.594,1.518c-0.684,0.532-1.367,1.064-2.05,1.518
			c-0.684,0.456-1.367,0.836-2.05,1.214c-1.367,0.684-2.809,1.292-4.252,1.672c-4.328,1.29-9.035,1.29-13.439,0
			c-1.443-0.38-2.885-0.988-4.252-1.672c-0.683-0.378-1.367-0.758-1.974-1.214c-1.291-0.836-2.582-1.898-3.721-3.036l-16.552-16.551
			h-0.076l-3.265-3.342c-9.187-9.111-9.187-24.144,0-33.331l29.612-29.611c0.684,0.15,1.443,0.226,2.202,0.302v0.076
			c-3.644,11.313-5.694,22.55-5.922,32.877c-1.063,0.456-2.202,0.986-3.189,1.67c-1.063,0.684-1.974,1.442-2.885,2.354v0.076
			c-4.707,4.707-6.302,11.237-4.783,17.16c0.683,3.188,2.354,6.149,4.783,8.579c2.202,2.202,4.859,3.72,7.668,4.556
			c2.582,0.834,5.391,0.986,8.049,0.532h0.076v0.074h0.076c0.684,0.76,1.367,1.52,2.126,2.202c0.759,0.684,1.519,1.29,2.354,1.898
			c0.835,0.608,1.67,1.216,2.581,1.672c0.836,0.53,1.822,0.986,2.734,1.366c0.759,0.302,1.518,0.606,2.354,0.834
			c1.518,0.456,3.189,0.76,4.784,0.912c0.835,0,1.67,0.076,2.505,0.076C420.257,142.515,421.548,142.439,422.915,142.211z"/>
		<path style="fill:#F8F1C3;" d="M351.831,140.221l19.92,19.92c9.165,9.165,24.163,9.165,33.328,0l17.889-17.889l0,0l-5.941,5.941
			c-9.165,9.165-24.163,9.165-33.328,0l-19.92-19.92c-9.165-9.165-9.165-24.162-0.001-33.327l-11.947,11.947
			C342.665,116.058,342.665,131.056,351.831,140.221z"/>
		<path style="fill:#816D5E;" d="M475.912,86.86c-6.15,15.261-14.502,28.321-23.765,37.887c-1.291,1.442-2.657,2.808-4.024,4.024
			c-0.076,0.076-0.076,0.076-0.152,0.152c-0.456-3.568-0.911-6.985-1.367-10.327v-0.076c-0.304-2.428-0.608-4.706-0.911-7.061
			c0.076-0.076,0.076-0.076,0.076-0.152l0.076-0.076c1.139-1.366,2.278-2.808,3.417-4.404c1.139-1.518,2.278-3.188,3.417-4.934
			c0.759-1.214,1.519-2.428,2.354-3.796c0.608-1.062,1.291-2.202,1.974-3.416c0-0.152,0.152-0.304,0.228-0.532
			c2.05-3.796,4.024-7.971,5.846-12.451c8.656-21.336,10.174-40.698,7.061-53.225c-1.822-7.137-5.163-12.073-9.567-13.819
			c-1.291-0.532-2.809-0.836-4.404-0.836c-12.148,0-31.737,16.477-44.189,47c-0.911,2.278-1.747,4.48-2.506,6.681
			c-2.202-0.228-4.404-0.532-6.758-0.91c-2.278-0.304-4.707-0.684-7.137-0.988c1.063-3.34,2.278-6.681,3.569-9.945
			C412.513,22.854,435.974,0,456.171,0c1.594,0,3.189,0.152,4.632,0.378c1.746,0.304,3.417,0.76,5.011,1.444
			c6.682,2.734,11.845,8.199,15.185,15.792c0.683,1.52,1.215,3.038,1.747,4.708c1.215,3.872,2.05,8.277,2.43,12.983
			C486.466,50.795,483.201,69.094,475.912,86.86z"/>
		<path style="fill:#705F51;" d="M411.374,125.961c-0.607,0.836-1.215,1.672-2.05,2.43c-2.733,2.734-6.074,4.404-9.566,5.088
			c-0.076,0-0.228,0.074-0.304,0.074h-0.076l-0.076-0.074c-0.152-0.152-0.228-0.304-0.304-0.456c-1.139-1.368-2.126-2.81-3.037-4.48
			c-0.531-0.836-0.987-1.822-1.443-2.734c-0.456-0.986-0.911-1.972-1.291-3.036c-0.379-1.062-0.759-2.126-1.063-3.264
			c-0.304-1.062-0.608-2.202-0.912-3.416c-0.228-1.216-0.456-2.43-0.683-3.644c-0.228-1.292-0.38-2.582-0.532-3.874
			c-0.076-0.454-0.076-0.91-0.152-1.366c-0.228-2.808-0.303-5.695-0.228-8.655c2.202-0.836,4.479-1.29,6.758-1.29
			c0.683,0,1.443,0.074,2.126,0.152c0.76,0.074,1.443,0.226,2.202,0.454c0.38,0,0.684,0.076,0.987,0.228
			c0.607,0.152,1.139,0.38,1.747,0.608c0,2.506,0,5.01,0.228,7.365C404.465,115.408,407.198,122.393,411.374,125.961z"/>
		<path style="fill:#ECE5BB;" d="M446.604,118.521v0.076l-23.613,23.614v0.076h-0.152c-1.291,0.152-2.657,0.304-3.948,0.304
			c-0.835,0-1.67-0.076-2.505-0.152c-1.595-0.152-3.265-0.456-4.784-0.912c-0.835-0.228-1.595-0.532-2.354-0.834
			c-0.911-0.38-1.898-0.836-2.734-1.366c-0.911-0.456-1.746-1.064-2.581-1.672c-0.835-0.608-1.595-1.214-2.354-1.898
			c-0.835-0.682-1.519-1.442-2.202-2.202h0.076c0.076,0,0.228-0.074,0.304-0.074c3.492-0.684,6.833-2.354,9.566-5.088
			c0.835-0.758,1.443-1.594,2.05-2.43c5.012-7.137,4.328-17.006-2.05-23.308c-1.67-1.746-3.72-3.114-5.846-3.948
			c0-1.216,0.076-2.43,0.152-3.72c0.608-8.657,2.582-17.995,5.847-27.486c7.517,1.064,14.046,1.974,19.058,2.582
			c7.365,1.062,11.693,1.67,11.693,1.67s2.278,16.399,5.467,39.71C445.997,113.814,446.3,116.092,446.604,118.521z"/>
		<path style="fill:#705F51;" d="M403.501,98.688c0.222-9.668,2.283-20.367,6.005-31.164c-4.34-0.588-9.019-1.218-13.962-1.875
			c-3.645,11.318-5.651,22.578-5.875,32.929C394.103,96.804,399.09,96.842,403.501,98.688z"/>
		<path style="fill:#C24443;" d="M459.891,268.883L228.618,500.156c-11.085,11.085-27.106,14.425-41.152,9.869
			c-5.923-1.898-11.541-5.163-16.248-9.869L11.771,340.709c-4.631-4.708-7.896-10.251-9.794-16.173
			c-4.556-13.971-1.215-30.067,9.794-41.152L243.044,52.111c5.087-5.088,93.618,5.771,150.335,13.211l-29.612,29.611l-11.92,11.997
			c-9.187,9.111-9.187,24.144,0,33.255l19.893,19.97c9.187,9.187,24.145,9.187,33.331,0l17.919-17.92l23.613-23.612
			c0.456,3.34,0.911,6.757,1.367,10.325C455.336,185.437,464.675,264.098,459.891,268.883z"/>
		
			<rect x="418.07" y="130.429" transform="matrix(0.7071 -0.7071 0.7071 0.7071 35.12 345.6456)" style="fill:#C24443;" width="33.44" height="0"/>
		<g>
			<path style="fill:#FDFEFE;" d="M196.046,354.654c-1.139-3.264-3.037-6.302-5.846-9.111c-2.657-2.658-5.315-4.632-8.048-5.999
				c-2.809-1.292-5.695-1.898-8.656-1.746c-2.505,0-4.935,0.532-7.365,1.518c-2.43,1.064-5.163,2.732-8.2,5.012l-7.972,5.845
				c-1.291,0.988-2.506,1.67-3.644,2.126c-0.076,0.076-0.228,0.152-0.304,0.152c-1.215,0.456-2.43,0.76-3.568,0.76
				c-1.215,0-2.278-0.228-3.189-0.684c-0.987-0.456-1.823-1.062-2.582-1.822c-1.974-1.974-3.037-4.404-3.037-7.289
				c0-2.884,1.519-5.847,4.556-8.883c1.898-1.898,4.176-3.644,6.758-5.316c2.581-1.67,5.618-2.504,9.111-2.58l0.076-14.199
				c-4.935,0.076-9.415,1.064-13.363,3.036c-4.024,1.898-8.048,4.86-12.072,8.885c-3.113,3.188-5.543,6.453-7.137,9.795
				c-1.595,3.34-2.506,6.681-2.733,9.945c-0.152,3.266,0.304,6.454,1.518,9.491c1.215,3.114,3.189,5.924,5.771,8.505
				c1.898,1.898,3.872,3.416,5.847,4.556c3.113,1.898,6.378,2.732,9.643,2.656c2.581,0,5.163-0.532,7.744-1.594
				c2.506-0.988,5.315-2.582,8.276-4.784l7.972-5.845c1.67-1.292,3.037-2.126,4.024-2.582c0.987-0.38,1.974-0.608,3.113-0.682
				c2.43,0,4.631,0.986,6.606,2.96c2.354,2.352,3.265,5.01,2.809,7.973c-0.532,3.036-2.506,6.225-5.847,9.643
				c-2.657,2.656-5.542,4.783-8.655,6.453c-3.113,1.746-6.454,2.582-10.174,2.582v14.577c5.695,0.076,10.857-1.062,15.413-3.416
				c4.479-2.278,8.959-5.695,13.363-10.023c3.037-3.036,5.467-6.302,7.365-9.719c1.822-3.416,2.961-6.833,3.417-10.249
				C197.412,361.182,197.109,357.842,196.046,354.654z"/>
			<path style="fill:#FDFEFE;" d="M214.04,284.574l-30.447-14.123l-8.883,8.885l14.198,30.371l22.626,48.592l11.769-11.769
				l-6.682-13.741l20.5-20.578l13.667,6.834l11.845-11.845L214.04,284.574z M210.244,320.107l-10.326-21.412l-3.417-6.985
				l6.985,3.416l21.184,10.555L210.244,320.107z"/>
			<path style="fill:#FDFEFE;" d="M297.256,252.457l-26.271,26.27l-47.834-47.834l-11.313,11.313l22.322,22.248l35.609,35.609
				l37.508-37.507L297.256,252.457z"/>
			<path style="fill:#FDFEFE;" d="M344.559,205.154l-26.878,26.801l-14.047-14.045l22.854-22.854l-10.098-10.099l-22.854,22.854
				l-1.367-1.366l-12.148-12.223l26.802-26.804l-10.098-10.097l-38.115,38.115l22.246,22.322l35.61,35.609l38.115-38.191
				L344.559,205.154z"/>
		</g>
	</g>
	<path style="opacity:0.06;fill:#040000;" d="M423.143,141.983l-0.152,0.228l23.613-23.614L423.143,141.983z M422.915,142.211v0.076
		h0.076v-0.076H422.915z M422.839,142.287l-5.847,5.846v0.076l5.923-5.923H422.839z M422.839,142.287l-5.847,5.846v0.076
		l5.923-5.923H422.839z M485.327,35.077c-0.38-4.707-1.215-9.111-2.43-12.983c-0.532-1.67-1.215-3.036-1.822-4.555l-10.934,10.933
		c3.113,12.527,1.595,31.889-7.061,53.225c-1.822,4.48-3.796,8.655-5.846,12.451c-0.076,0.228-0.228,0.38-0.228,0.532
		c-0.684,1.214-1.367,2.354-1.974,3.416c-0.835,1.368-1.595,2.582-2.354,3.796c-1.139,1.746-2.278,3.34-3.417,4.934
		c-0.531,0.76-1.139,1.52-1.746,2.278c-0.532,0.684-1.063,1.444-1.671,2.126c0.152,0.836,0.228,1.67,0.304,2.582
		c-0.152-0.836-0.304-1.67-0.379-2.506c0,0.076,0,0.076-0.076,0.152c-3.189-23.31-5.467-39.71-5.467-39.71s-4.328-0.608-11.693-1.67
		l-38.495,38.494c0.152,1.292,0.304,2.582,0.532,3.874c0.228,1.214,0.456,2.428,0.683,3.644c0.304,1.214,0.608,2.354,0.912,3.416
		c0.303,1.138,0.683,2.202,1.063,3.264c0.38,1.064,0.836,2.05,1.291,3.036c0.456,0.912,0.911,1.898,1.443,2.734
		c0.911,1.67,1.898,3.112,3.037,4.48c0.076,0.152,0.152,0.304,0.304,0.456c-2.658,0.454-5.467,0.302-8.049-0.532
		c-2.809-0.836-5.466-2.354-7.668-4.556c-2.43-2.43-4.1-5.391-4.783-8.579l-11.693,11.769h-0.076l-11.921,11.919l-62.944,62.944
		l-11.313,11.313l-35.382,35.459l-11.313,11.237l-20.121,20.12l-10.554,10.553l-3.568,3.568l-11.009,11.011L146.314,352.3
		l-14.35,14.351l-46.923,46.922l86.329,86.328c4.707,4.708,10.326,7.973,16.248,9.871c14.046,4.556,30.067,1.214,41.152-9.871
		l231.121-231.045l0.152-0.228c0.152-0.152,0.38-0.53,0.456-0.91c0.076-0.304,0.152-0.608,0.228-0.988
		c0.076-0.456,0.152-0.986,0.228-1.518c2.05-16.476-6.226-85.57-12.832-136.44v-0.076c0.683-0.608,1.367-1.214,2.05-1.898
		c0.684-0.608,1.291-1.366,1.974-2.05c9.263-9.567,17.615-22.626,23.765-37.887c0.076-0.076,0.152-0.152,0.152-0.228
		C483.353,68.864,486.618,50.567,485.327,35.077z M409.324,102.653c6.378,6.303,7.062,16.172,2.05,23.308
		c-4.176-3.568-6.909-10.553-7.669-19.892c-0.228-2.354-0.228-4.859-0.228-7.365C405.604,99.539,407.654,100.907,409.324,102.653z
		 M416.158,149.044l-10.934,10.859l10.022-10.099l0.152-0.152l1.594-1.518l0.152-0.228l5.695-5.618l-5.847,5.846v0.076
		L416.158,149.044z M422.839,142.287l-5.847,5.846v0.076l5.923-5.923H422.839z M422.915,142.211v0.076h0.076v-0.076H422.915z"/>
</g>
</svg>