<svg xmlns="http://www.w3.org/2000/svg" xmlns:xlink="http://www.w3.org/1999/xlink" viewBox="0,0,256,256" width="480px" height="480px" fill-rule="nonzero"><g transform=""><g fill="#19fc30" fill-rule="nonzero" stroke="none" stroke-width="1" stroke-linecap="butt" stroke-linejoin="miter" stroke-miterlimit="10" stroke-dasharray="" stroke-dashoffset="0" font-family="none" font-weight="none" font-size="none" text-anchor="none" style="mix-blend-mode: normal"><path d="M128,256c-70.69245,0 -128,-57.30755 -128,-128v0c0,-70.69245 57.30755,-128 128,-128v0c70.69245,0 128,57.30755 128,128v0c0,70.69245 -57.30755,128 -128,128z" id="shape"></path></g><g fill="none" fill-rule="nonzero" stroke="none" stroke-width="1" stroke-linecap="butt" stroke-linejoin="miter" stroke-miterlimit="10" stroke-dasharray="" stroke-dashoffset="0" font-family="none" font-weight="none" font-size="none" text-anchor="none" style="mix-blend-mode: normal"><g transform="scale(5.33333,5.33333) skewX(0)"><path d="M13,42h22c3.866,0 7,-3.134 7,-7v-22c0,-3.866 -3.134,-7 -7,-7h-22c-3.866,0 -7,3.134 -7,7v22c0,3.866 3.134,7 7,7z" fill="#00ff00"></path><path d="M35.45,31.041l-4.612,-3.051c-0.563,-0.341 -1.267,-0.347 -1.836,-0.017c0,0 0,0 -1.978,1.153c-0.265,0.154 -0.52,0.183 -0.726,0.145c-0.262,-0.048 -0.442,-0.191 -0.454,-0.201c-1.087,-0.797 -2.357,-1.852 -3.711,-3.205c-1.353,-1.353 -2.408,-2.623 -3.205,-3.711c-0.009,-0.013 -0.153,-0.193 -0.201,-0.454c-0.037,-0.206 -0.009,-0.46 0.145,-0.726c1.153,-1.978 1.153,-1.978 1.153,-1.978c0.331,-0.569 0.324,-1.274 -0.017,-1.836l-3.051,-4.612c-0.378,-0.571 -1.151,-0.722 -1.714,-0.332c0,0 -1.445,0.989 -1.922,1.325c-0.764,0.538 -1.01,1.356 -1.011,2.496c-0.002,1.604 1.38,6.629 7.201,12.45v0v0v0v0c5.822,5.822 10.846,7.203 12.45,7.201c1.14,-0.001 1.958,-0.248 2.496,-1.011c0.336,-0.477 1.325,-1.922 1.325,-1.922c0.39,-0.563 0.24,-1.336 -0.332,-1.714z" fill="#ffffff"></path></g></g></g></svg>